<?xml version="1.0" standalone="no"?>

<svg xmlns="http://www.w3.org/2000/svg" viewBox="0 0 1440 320">
  <path fill="#DFD0B8" fill-opacity="0.4" d="M0,160L40,176C80,192,160,224,240,202.7C320,181,400,107,480,101.3C560,96,640,160,720,154.7C800,149,880,75,960,64C1040,53,1120,107,1200,106.7C1280,107,1360,53,1400,26.7L1440,0L1440,320L1400,320C1360,320,1280,320,1200,320C1120,320,1040,320,960,320C880,320,800,320,720,320C640,320,560,320,480,320C400,320,320,320,240,320C160,320,80,320,40,320L0,320Z"></path>
</svg>
